<?xml version="1.0" encoding="utf-8"?>
<!-- Generator: Adobe Illustrator 27.9.3, SVG Export Plug-In . SVG Version: 9.03 Build 53313)  -->
<svg version="1.1" id="BGswitch_x5F_path" xmlns="http://www.w3.org/2000/svg" xmlns:xlink="http://www.w3.org/1999/xlink" x="0px"
	 y="0px" viewBox="0 0 50 50" style="enable-background:new 0 0 50 50;" xml:space="preserve">
<style type="text/css">
	.st0{display:none;opacity:0.75;stroke:#FFFFFF;stroke-width:2;stroke-miterlimit:10;}
	.st1{opacity:0.75;}
	.st2{fill:#FFFFFF;}
</style>
<rect class="st0" width="51" height="51"/>
<g>
	<g>
		<path class="st1" d="M25.4,18.5c-5.7,0-11.3-1-16.4-2.7V35c5.2-1.7,10.7-2.7,16.4-2.7c5.4,0,10.6,0.9,15.6,2.4V16.1
			C36.1,17.6,30.9,18.5,25.4,18.5z"/>
		<path class="st2" d="M9,35v2.1c5.1-1.8,10.7-2.8,16.4-2.8c5.4,0,10.7,0.9,15.6,2.5v-2.1c-4.9-1.6-10.1-2.4-15.6-2.4
			C19.7,32.3,14.2,33.3,9,35z"/>
		<path class="st2" d="M41,16.1V14c-4.9,1.6-10.1,2.5-15.6,2.5c-5.8,0-11.3-1-16.4-2.8v2.1c5.2,1.7,10.7,2.7,16.4,2.7
			C30.9,18.5,36.1,17.6,41,16.1z"/>
	</g>
</g>
<polygon class="st2" points="5.9,30.7 0.1,25 5.9,19.3 7.3,20.7 3,25 7.3,29.3 "/>
<polygon class="st2" points="44.3,30.7 42.9,29.3 47.1,25 42.9,20.7 44.3,19.3 50,25 "/>
</svg>
