<?xml version="1.0" encoding="utf-8"?>
<!-- Generator: Adobe Illustrator 27.9.3, SVG Export Plug-In . SVG Version: 9.03 Build 53313)  -->
<svg version="1.1" id="Ebene_2" xmlns="http://www.w3.org/2000/svg" xmlns:xlink="http://www.w3.org/1999/xlink" x="0px" y="0px"
	 viewBox="0 0 54 54" style="enable-background:new 0 0 54 54;" xml:space="preserve">
<style type="text/css">
	.st0{fill:#FFFFFF;}
</style>
<g id="merkur">
	<path class="st0" d="M27,38.5c-8,0-14.5-6.5-14.5-14.5S19,9.5,27,9.5S41.5,16,41.5,24S35,38.5,27,38.5z M27,12.5
		c-6.3,0-11.5,5.2-11.5,11.5c0,6.3,5.2,11.5,11.5,11.5c6.3,0,11.5-5.2,11.5-11.5C38.5,17.7,33.3,12.5,27,12.5z"/>
	<circle class="st0" cx="27" cy="24.1" r="3.4"/>
	<polygon class="st0" points="32.5,47 28.5,47 28.5,43 25.5,43 25.5,47 21.5,47 21.5,50 25.5,50 25.5,54 28.5,54 28.5,50 32.5,50 	
		"/>
	<path class="st0" d="M41.9,0h-3c0,0.1,0,0.1,0,0.2c0,2.4-0.7,4.6-1.9,6.5c0.9,0.5,1.7,1.1,2.4,1.8c1.6-2.4,2.5-5.2,2.5-8.3
		C41.9,0.1,41.9,0.1,41.9,0z"/>
	<path class="st0" d="M15.1,0h-3c0,0.1,0,0.1,0,0.2c0,3,0.9,5.9,2.5,8.2c0.8-0.6,1.6-1.2,2.4-1.8c-1.2-1.9-1.9-4.1-1.9-6.5
		C15.1,0.1,15.1,0.1,15.1,0z"/>
</g>
</svg>
