<?xml version="1.0" encoding="utf-8"?>
<!-- Generator: Adobe Illustrator 27.9.3, SVG Export Plug-In . SVG Version: 9.03 Build 53313)  -->
<svg version="1.1" id="icon_x5F_markerCLOSE" xmlns="http://www.w3.org/2000/svg" xmlns:xlink="http://www.w3.org/1999/xlink"
	 x="0px" y="0px" viewBox="0 0 50 50" style="enable-background:new 0 0 50 50;" xml:space="preserve">
<style type="text/css">
	.st0{opacity:0.75;enable-background:new    ;}
	.st1{fill:#FFFFFF;}
	.st2{fill:#FFFFFF;enable-background:new    ;}
</style>
<path class="st0" d="M50,15c0-3.9-3.1-7-7-7c-1.7,0-3.3,0.6-4.5,1.6C34.9,6.4,30.2,4.5,25,4.5C13.7,4.5,4.5,13.7,4.5,25
	S13.7,45.5,25,45.5S45.5,36.3,45.5,25c0-1.1-0.1-2.3-0.3-3.4C48,20.7,50,18.1,50,15z"/>
<path class="st1" d="M44.5,25c0,10.8-8.7,19.5-19.5,19.5S5.5,35.8,5.5,25S14.2,5.5,25,5.5c4.4,0,8.4,1.5,11.6,3.9
	c0.2-0.3,0.5-0.5,0.7-0.7C33.9,6.1,29.6,4.5,25,4.5C13.7,4.5,4.5,13.7,4.5,25S13.7,45.5,25,45.5S45.5,36.3,45.5,25
	c0-0.6,0-1.2-0.1-1.9c-0.3,0.1-0.7,0.2-1,0.2C44.5,23.9,44.5,24.5,44.5,25z"/>
<path class="st2" d="M44.5,25c0,10.8-8.7,19.5-19.5,19.5C14.2,44.5,5.5,35.8,5.5,25C5.5,14.2,14.2,5.5,25,5.5
	c4.9,0,9.4,1.8,12.8,4.8c0.2-0.2,0.5-0.5,0.7-0.7C34.9,6.4,30.2,4.5,25,4.5C13.7,4.5,4.5,13.7,4.5,25S13.7,45.5,25,45.5
	S45.5,36.3,45.5,25c0-1.1-0.1-2.3-0.3-3.4c-0.3,0.1-0.6,0.2-1,0.2C44.4,22.9,44.5,23.9,44.5,25z"/>
<path class="st1" d="M25,14.5c-4.4,0-8.1,2.7-9.7,6.5c0.2,0,0.5,0,0.7,0c0.1,0,0.3,0,0.4,0c1.5-3.3,4.8-5.5,8.6-5.5
	c5.2,0,9.5,4.3,9.5,9.5s-4.3,9.5-9.5,9.5c-1.6,0-3.2-0.4-4.5-1.1c-0.3,0.2-0.6,0.4-0.9,0.6c1.6,1,3.4,1.5,5.4,1.5
	c5.8,0,10.5-4.7,10.5-10.5S30.8,14.5,25,14.5z"/>
<circle class="st1" cx="43" cy="15" r="5.5"/>
<polygon points="43,16.6 40.3,14 41.1,13.3 43,15.3 44.9,13.3 45.7,14 "/>
<circle class="st1" cx="16" cy="28" r="4.5"/>
<polygon points="16,29.7 13.6,27.4 14.4,26.6 16,28.3 17.6,26.6 18.4,27.4 "/>
</svg>
