<?xml version="1.0" encoding="utf-8"?>
<!-- Generator: Adobe Illustrator 27.9.3, SVG Export Plug-In . SVG Version: 9.03 Build 53313)  -->
<svg version="1.1" id="planetCam_x5F_NAV" xmlns="http://www.w3.org/2000/svg" xmlns:xlink="http://www.w3.org/1999/xlink" x="0px"
	 y="0px" viewBox="0 0 50 50" style="enable-background:new 0 0 50 50;" xml:space="preserve">
<style type="text/css">
	.st0{opacity:0.75;enable-background:new    ;}
	.st1{fill:#FFFFFF;}
</style>
<circle class="st0" cx="25" cy="25" r="23"/>
<path class="st1" d="M25,4c-3.8,0-7.4,1-10.5,2.8c0.5,0.4,0.9,1,1.2,1.6C18.5,6.9,21.6,6,25,6c10.5,0,19,8.5,19,19s-8.5,19-19,19
	S6,35.5,6,25c0-4,1.3-7.8,3.4-10.9c-0.6-0.3-1.1-0.8-1.5-1.3C5.5,16.2,4,20.4,4,25c0,11.6,9.4,21,21,21s21-9.4,21-21S36.6,4,25,4z"
	/>
<circle class="st1" cx="11.7" cy="10.3" r="1.5"/>
<path class="st1" d="M25,11.1c-7.6,0-13.9,6.2-13.9,13.9c0,2.3,0.6,4.5,1.6,6.5c0.4-0.5,1-1,1.6-1.2C13.5,28.7,13,26.9,13,25
	c0-6.5,5.3-11.9,11.9-11.9s12,5.4,12,11.9S31.5,36.9,25,36.9c-2.3,0-4.5-0.7-6.3-1.8c-0.3,0.6-0.8,1.2-1.3,1.5
	c2.2,1.5,4.8,2.3,7.6,2.3c7.6,0,13.9-6.2,13.9-13.9S32.6,11.1,25,11.1z"/>
<circle class="st1" cx="15.5" cy="33.6" r="1"/>
<path class="st1" d="M25,32.3c-4,0-7.3-3.3-7.3-7.3s3.3-7.3,7.3-7.3s7.3,3.3,7.3,7.3S29,32.3,25,32.3z M25,19.7
	c-2.9,0-5.3,2.4-5.3,5.3s2.4,5.3,5.3,5.3s5.3-2.4,5.3-5.3S27.9,19.7,25,19.7z"/>
<circle class="st1" cx="25" cy="25" r="1.5"/>
</svg>
