<?xml version="1.0" encoding="utf-8"?>
<!-- Generator: Adobe Illustrator 27.9.3, SVG Export Plug-In . SVG Version: 9.03 Build 53313)  -->
<svg version="1.1" id="markerOFF" xmlns="http://www.w3.org/2000/svg" xmlns:xlink="http://www.w3.org/1999/xlink" x="0px" y="0px"
	 viewBox="0 0 50 50" style="enable-background:new 0 0 50 50;" xml:space="preserve">
<style type="text/css">
	.st0{opacity:0.75;enable-background:new    ;}
	.st1{fill:#FFFFFF;}
</style>
<path class="st0" d="M25,5c-3,0-5.8,0.7-8.3,1.8c-1.6-2-4-3.3-6.7-3.3c-4.7,0-8.5,3.8-8.5,8.5c0,3.2,1.7,5.9,4.3,7.4
	C5.3,21.2,5,23.1,5,25c0,11,9,20,20,20s20-9,20-20S36,5,25,5z"/>
<path class="st1" d="M15.5,25c0-5.2,4.3-9.5,9.5-9.5s9.5,4.3,9.5,9.5c0,1.4-0.3,2.6-0.8,3.8c0.3,0.2,0.5,0.5,0.7,0.8
	c0.7-1.4,1.1-2.9,1.1-4.6c0-5.8-4.7-10.5-10.5-10.5c-5.8,0-10.5,4.7-10.5,10.5c0,4.8,3.2,8.8,7.6,10.1C22,34.7,22,34.4,22,34
	C18.2,32.7,15.5,29.2,15.5,25z"/>
<path class="st1" d="M25,4.5c-3.1,0-6,0.7-8.6,1.9c0.2,0.3,0.4,0.5,0.6,0.8c2.4-1.1,5.1-1.7,8-1.7c10.8,0,19.5,8.7,19.5,19.5
	c0,10.8-8.7,19.5-19.5,19.5C14.2,44.5,5.5,35.8,5.5,25c0-1.9,0.3-3.7,0.8-5.4c-0.3-0.2-0.6-0.3-0.9-0.5C4.8,21,4.5,23,4.5,25
	c0,11.3,9.2,20.5,20.5,20.5S45.5,36.3,45.5,25S36.3,4.5,25,4.5z"/>
<g>
	<circle class="st1" cx="10" cy="12" r="6"/>
	<polygon points="12.4,10.4 11.6,9.6 10,11.3 8.4,9.6 7.6,10.4 9.3,12 7.6,13.6 8.4,14.4 10,12.7 11.6,14.4 12.4,13.6 10.7,12 	"/>
</g>
<g>
	<path class="st1" d="M29,29.5c2.5,0,4.5,2,4.5,4.5s-2,4.5-4.5,4.5s-4.5-2-4.5-4.5S26.5,29.5,29,29.5z"/>
	<polygon points="31.4,32.4 30.6,31.6 29,33.3 27.4,31.6 26.6,32.4 28.3,34 26.6,35.6 27.4,36.4 29,34.7 30.6,36.4 31.4,35.6 
		29.7,34 	"/>
</g>
</svg>
