<?xml version="1.0" encoding="utf-8"?>
<!-- Generator: Adobe Illustrator 27.9.3, SVG Export Plug-In . SVG Version: 9.03 Build 53313)  -->
<svg version="1.1" id="iconP_x5F_Neptun" xmlns="http://www.w3.org/2000/svg" xmlns:xlink="http://www.w3.org/1999/xlink" x="0px"
	 y="0px" viewBox="0 0 54 54" style="enable-background:new 0 0 54 54;" xml:space="preserve">
<style type="text/css">
	.st0{fill:#FFFFFF;}
</style>
<polygon class="st0" points="32.5,43 28.5,43 28.5,39 25.5,39 25.5,43 21.5,43 21.5,46 25.5,46 25.5,50 28.5,50 28.5,46 32.5,46 "/>
<path class="st0" d="M27,34.5c8,0,14.5-6.5,14.5-14.5h-3c0,6.3-5.2,11.5-11.5,11.5c-6.3,0-11.5-5.2-11.5-11.5h-3
	C12.5,28,19,34.5,27,34.5z"/>
<polygon class="st0" points="30.9,9.9 27,5.9 23.1,9.9 20.9,7.7 27,1.7 33.1,7.7 "/>
<polygon class="st0" points="42.9,15.1 40,12.1 37.1,15.1 34.9,12.9 40,7.9 45.1,12.9 "/>
<polygon class="st0" points="16.9,15.1 14,12.1 11.1,15.1 8.9,12.9 14,7.9 19.1,12.9 "/>
</svg>
