<?xml version="1.0" encoding="utf-8"?>
<!-- Generator: Adobe Illustrator 27.9.3, SVG Export Plug-In . SVG Version: 9.03 Build 53313)  -->
<svg version="1.1" id="Saturn" xmlns="http://www.w3.org/2000/svg" xmlns:xlink="http://www.w3.org/1999/xlink" x="0px" y="0px"
	 viewBox="0 0 54 54" style="enable-background:new 0 0 54 54;" xml:space="preserve">
<style type="text/css">
	.st0{fill:#FFFFFF;}
</style>
<path class="st0" d="M42.5,33c0-8-6.5-14.5-14.5-14.5c-4,0-7.6,1.6-10.2,4.3l2.1,2.1c2.1-2.1,5-3.4,8.1-3.4
	c6.3,0,11.5,5.2,11.5,11.5c0,6.3-5.2,11.5-11.5,11.5v3C36,47.5,42.5,41,42.5,33z"/>
<polygon class="st0" points="19.5,13 15.5,13 15.5,9 12.5,9 12.5,13 8.5,13 8.5,16 12.5,16 12.5,20 15.5,20 15.5,16 19.5,16 "/>
</svg>
