<?xml version="1.0" encoding="utf-8"?>
<!-- Generator: Adobe Illustrator 27.9.3, SVG Export Plug-In . SVG Version: 9.03 Build 53313)  -->
<svg version="1.1" id="planetsClose" xmlns="http://www.w3.org/2000/svg" xmlns:xlink="http://www.w3.org/1999/xlink" x="0px"
	 y="0px" viewBox="0 0 50 50" style="enable-background:new 0 0 50 50;" xml:space="preserve">
<style type="text/css">
	.st0{opacity:0.75;enable-background:new    ;}
	.st1{fill:#FFFFFF;}
</style>
<circle class="st0" cx="25" cy="25" r="23"/>
<path class="st1" d="M25,31.5c-3.6,0-6.5-2.9-6.5-6.5s2.9-6.5,6.5-6.5s6.5,2.9,6.5,6.5S28.6,31.5,25,31.5z M25,19.5
	c-3,0-5.5,2.5-5.5,5.5s2.5,5.5,5.5,5.5s5.5-2.5,5.5-5.5S28,19.5,25,19.5z"/>
<path class="st1" d="M25,11.5c-7.4,0-13.5,6.1-13.5,13.5c0,2.8,0.9,5.4,2.3,7.5c0.2-0.3,0.4-0.5,0.7-0.7c-1.3-2-2.1-4.3-2.1-6.8
	c0-6.9,5.6-12.5,12.5-12.5S37.5,18.1,37.5,25S31.9,37.5,25,37.5c-3,0-5.7-1-7.8-2.8c-0.2,0.3-0.5,0.5-0.8,0.7
	c2.3,1.9,5.3,3.1,8.6,3.1c7.4,0,13.5-6.1,13.5-13.5S32.4,11.5,25,11.5z"/>
<path class="st1" d="M25,4.5c-4.4,0-8.5,1.4-11.8,3.8c0.3,0.2,0.5,0.5,0.7,0.7c3.2-2.2,7-3.5,11.2-3.5c10.8,0,19.5,8.7,19.5,19.5
	s-8.7,19.5-19.5,19.5C14.2,44.5,5.5,35.8,5.5,25c0-4.8,1.8-9.3,4.7-12.7c-0.3-0.2-0.5-0.5-0.7-0.7c-3.1,3.6-5,8.3-5,13.4
	c0,11.3,9.2,20.5,20.5,20.5S45.5,36.3,45.5,25S36.3,4.5,25,4.5z"/>
<polygon class="st1" points="27.4,23.4 26.6,22.6 25,24.3 23.4,22.6 22.6,23.4 24.3,25 22.6,26.6 23.4,27.4 25,25.7 26.6,27.4 
	27.4,26.6 25.7,25 "/>
<circle class="st1" cx="11.7" cy="10.3" r="1.5"/>
<circle class="st1" cx="15.5" cy="33.6" r="1"/>
</svg>
