<?xml version="1.0" encoding="utf-8"?>
<!-- Generator: Adobe Illustrator 27.9.3, SVG Export Plug-In . SVG Version: 9.03 Build 53313)  -->
<svg version="1.1" id="uranus" xmlns="http://www.w3.org/2000/svg" xmlns:xlink="http://www.w3.org/1999/xlink" x="0px" y="0px"
	 viewBox="0 0 54 54" style="enable-background:new 0 0 54 54;" xml:space="preserve">
<style type="text/css">
	.st0{fill:#FFFFFF;}
</style>
<polygon class="st0" points="31.9,17.9 27,12.9 22.1,17.9 19.9,15.7 27,8.7 34.1,15.7 "/>
<circle class="st0" cx="26.3" cy="31.3" r="3.4"/>
<path class="st0" d="M27,46.5c8,0,14.5-6.5,14.5-14.5c0-3.9-1.6-7.5-4.2-10.1L35.2,24c2,2.1,3.3,4.9,3.3,8c0,6.3-5.2,11.5-11.5,11.5
	c-6.3,0-11.5-5.2-11.5-11.5c0-3.2,1.3-6,3.4-8.1l-2.1-2.1c-2.6,2.6-4.3,6.3-4.3,10.2C12.5,40,19,46.5,27,46.5z"/>
</svg>
