<?xml version="1.0" encoding="utf-8"?>
<!-- Generator: Adobe Illustrator 27.9.3, SVG Export Plug-In . SVG Version: 9.03 Build 53313)  -->
<svg version="1.1" id="iconP_x5F_Jupiter" xmlns="http://www.w3.org/2000/svg" xmlns:xlink="http://www.w3.org/1999/xlink" x="0px"
	 y="0px" viewBox="0 0 54 54" style="enable-background:new 0 0 54 54;" xml:space="preserve">
<style type="text/css">
	.st0{fill:#FFFFFF;}
</style>
<path class="st0" d="M32,24.5c0-8-6.5-14.5-14.5-14.5c-0.1,0-0.2,0-0.4,0v3c0.1,0,0.2,0,0.4,0C23.8,13,29,18.2,29,24.5
	C29,30.8,23.8,36,17.5,36c-0.1,0-0.2,0-0.4,0v3c0.1,0,0.2,0,0.4,0C25.5,39,32,32.5,32,24.5z"/>
<polygon class="st0" points="38.8,41 34.8,41 34.8,37 31.8,37 31.8,41 27.8,41 27.8,44 31.8,44 31.8,48 34.8,48 34.8,44 38.8,44 "/>
</svg>
