<?xml version="1.0" encoding="utf-8"?>
<!-- Generator: Adobe Illustrator 27.9.3, SVG Export Plug-In . SVG Version: 9.03 Build 53313)  -->
<svg version="1.1" id="iconP_x5F_Erde" xmlns="http://www.w3.org/2000/svg" xmlns:xlink="http://www.w3.org/1999/xlink" x="0px"
	 y="0px" viewBox="0 0 54 54" style="enable-background:new 0 0 54 54;" xml:space="preserve">
<style type="text/css">
	.st0{fill:#FFFFFF;}
</style>
<path class="st0" d="M27,49.5c-8,0-14.5-6.5-14.5-14.5S19,20.5,27,20.5S41.5,27,41.5,35S35,49.5,27,49.5z M27,23.5
	c-6.3,0-11.5,5.2-11.5,11.5S20.7,46.5,27,46.5c6.3,0,11.5-5.2,11.5-11.5S33.3,23.5,27,23.5z"/>
<circle class="st0" cx="27" cy="35" r="3.4"/>
<polygon class="st0" points="32.5,8.5 28.5,8.5 28.5,4.5 25.5,4.5 25.5,8.5 21.5,8.5 21.5,11.5 25.5,11.5 25.5,15.5 28.5,15.5 
	28.5,11.5 32.5,11.5 "/>
</svg>
