<?xml version="1.0" encoding="utf-8"?>
<!-- Generator: Adobe Illustrator 27.9.3, SVG Export Plug-In . SVG Version: 9.03 Build 53313)  -->
<svg version="1.1" id="zoomIN" xmlns="http://www.w3.org/2000/svg" xmlns:xlink="http://www.w3.org/1999/xlink" x="0px" y="0px"
	 viewBox="0 0 50 50" style="enable-background:new 0 0 50 50;" xml:space="preserve">
<style type="text/css">
	.st0{opacity:0.75;}
	.st1{fill:#FFFFFF;}
</style>
<circle class="st0" cx="23" cy="24.8" r="20"/>
<path class="st1" d="M23,45.8c-11.6,0-21-9.4-21-21c0-11.6,9.4-21,21-21c11.6,0,21,9.4,21,21C44,36.4,34.6,45.8,23,45.8z M23,5.8
	c-10.5,0-19,8.5-19,19s8.5,19,19,19s19-8.5,19-19S33.5,5.8,23,5.8z"/>
<polygon class="st1" points="29.5,23.8 24,23.8 24,18.3 22,18.3 22,23.8 16.5,23.8 16.5,25.8 22,25.8 22,31.3 24,31.3 24,25.8 
	29.5,25.8 "/>
</svg>
