<?xml version="1.0" encoding="utf-8"?>
<!-- Generator: Adobe Illustrator 27.9.3, SVG Export Plug-In . SVG Version: 9.03 Build 53313)  -->
<svg version="1.1" id="bgSwitch" xmlns="http://www.w3.org/2000/svg" xmlns:xlink="http://www.w3.org/1999/xlink" x="0px" y="0px"
	 viewBox="0 0 50 50" style="enable-background:new 0 0 50 50;" xml:space="preserve">
<style type="text/css">
	.st0{opacity:0.75;enable-background:new    ;}
	.st1{fill:#FFFFFF;}
</style>
<path class="st0" d="M9.1,13.3v21.3c5.2-1.8,10.7-2.8,16.4-2.8c5.4,0,10.7,0.9,15.6,2.5V13.6c-4.9,1.6-10.1,2.5-15.6,2.5
	C19.8,16.1,14.2,15.1,9.1,13.3z"/>
<path class="st1" d="M25.5,32.9c5.4,0,10.7,0.9,15.6,2.5v-2.1c-4.9-1.6-10.1-2.4-15.6-2.4c-5.7,0-11.3,1-16.4,2.7v2.1
	C14.2,33.9,19.8,32.9,25.5,32.9z"/>
<path class="st1" d="M41.1,14.7v-2.1c-4.9,1.6-10.1,2.5-15.6,2.5c-5.8,0-11.3-1-16.4-2.8v2.1c5.2,1.7,10.7,2.7,16.4,2.7
	C30.9,17.1,36.2,16.2,41.1,14.7z"/>
<polygon class="st1" points="44.3,29.3 42.9,27.9 47.2,23.6 42.9,19.3 44.3,17.9 50,23.6 "/>
<polygon class="st1" points="5.9,29.3 0.2,23.6 5.9,17.9 7.3,19.3 3,23.6 7.3,27.9 "/>
</svg>
