<?xml version="1.0" encoding="utf-8"?>
<!-- Generator: Adobe Illustrator 27.9.3, SVG Export Plug-In . SVG Version: 9.03 Build 53313)  -->
<svg version="1.1" id="Ebene_2" xmlns="http://www.w3.org/2000/svg" xmlns:xlink="http://www.w3.org/1999/xlink" x="0px" y="0px"
	 viewBox="0 0 54 54" style="enable-background:new 0 0 54 54;" xml:space="preserve">
<style type="text/css">
	.st0{fill:#FFFFFF;}
</style>
<g id="venus">
	<polygon class="st0" points="32.5,41 28.5,41 28.5,37 25.5,37 25.5,41 21.5,41 21.5,44 25.5,44 25.5,48 28.5,48 28.5,44 32.5,44 	
		"/>
	<path class="st0" d="M41.5,23C41.5,15,35,8.5,27,8.5S12.5,15,12.5,23c0,4,1.6,7.7,4.3,10.3l2.1-2.1c-2.1-2.1-3.4-5-3.4-8.2
		c0-6.3,5.2-11.5,11.5-11.5c6.3,0,11.5,5.2,11.5,11.5c0,3.3-1.4,6.3-3.6,8.4l2.1,2.1C39.8,30.8,41.5,27.1,41.5,23z"/>
</g>
</svg>
