<?xml version="1.0" encoding="utf-8"?>
<!-- Generator: Adobe Illustrator 27.9.3, SVG Export Plug-In . SVG Version: 9.03 Build 53313)  -->
<svg version="1.1" id="icon_x5F_orbitOFF" xmlns="http://www.w3.org/2000/svg" xmlns:xlink="http://www.w3.org/1999/xlink" x="0px"
	 y="0px" viewBox="0 0 50 50" style="enable-background:new 0 0 50 50;" xml:space="preserve">
<style type="text/css">
	.st0{opacity:0.75;}
	.st1{fill:#FFFFFF;}
</style>
<path class="st0" d="M25,5.5c-3.7,0-7.1,1-10.1,2.7c-0.8-0.9-2-1.4-3.3-1.4c-2.5,0-4.5,2-4.5,4.5c0,1.1,0.4,2.1,1.1,2.9
	C5.9,17.5,4.5,21.6,4.5,26c0,11.3,9.2,20.5,20.5,20.5S45.5,37.3,45.5,26S36.3,5.5,25,5.5z"/>
<path class="st1" d="M25,12.5c-7.4,0-13.5,6.1-13.5,13.5c0,2.2,0.5,4.3,1.5,6.1c0.3-0.2,0.6-0.3,0.9-0.4C13,30,12.5,28.1,12.5,26
	c0-6.9,5.6-12.5,12.5-12.5S37.5,19.1,37.5,26S31.9,38.5,25,38.5c-2.5,0-4.9-0.8-6.8-2c-0.1,0.3-0.3,0.6-0.5,0.8
	c2.1,1.4,4.7,2.2,7.4,2.2c7.4,0,13.5-6.1,13.5-13.5S32.4,12.5,25,12.5z"/>
<circle class="st1" cx="15" cy="35" r="1"/>
<path class="st1" d="M25,5.5c-3.7,0-7.1,1-10.1,2.7c0.2,0.2,0.4,0.5,0.6,0.8c2.8-1.6,6-2.5,9.5-2.5c10.8,0,19.5,8.7,19.5,19.5
	S35.8,45.5,25,45.5S5.5,36.8,5.5,26c0-4.1,1.3-8,3.5-11.1c-0.3-0.2-0.5-0.4-0.7-0.7C5.9,17.5,4.5,21.6,4.5,26
	c0,11.3,9.2,20.5,20.5,20.5S45.5,37.3,45.5,26S36.3,5.5,25,5.5z"/>
<circle class="st1" cx="11.7" cy="11.3" r="1.5"/>
<polygon class="st1" points="30.3,22.1 28.9,20.7 25,24.6 21.1,20.7 19.7,22.1 23.6,26 19.7,29.9 21.1,31.3 25,27.4 28.9,31.3 
	30.3,29.9 26.4,26 "/>
</svg>
