<?xml version="1.0" encoding="utf-8"?>
<!-- Generator: Adobe Illustrator 27.9.6, SVG Export Plug-In . SVG Version: 9.03 Build 54986)  -->
<svg version="1.1" id="Ebene_1" xmlns="http://www.w3.org/2000/svg" xmlns:xlink="http://www.w3.org/1999/xlink" x="0px" y="0px"
	 width="50px" height="50px" viewBox="0 0 50 50" style="enable-background:new 0 0 50 50;" xml:space="preserve">
<style type="text/css">
	.st0{fill:#FFFFFF;}
</style>
<g id="markerOFF_x5F_0_x5F_path">
	<circle cx="25" cy="25" r="22"/>
</g>
<g id="markerOFF_x5F_0_x5F_path_00000163057588561250577630000012919618259424920449_">
	<g>
		<path class="st0" d="M25,4c-3.2,0-6.2,0.7-9,2c0.5,0.5,0.9,1,1.2,1.6C19.7,6.6,22.3,6,25,6c10.5,0,19,8.5,19,19s-8.5,19-19,19
			S6,35.5,6,25c0-1.8,0.3-3.5,0.7-5.2c-0.6-0.3-1.2-0.6-1.8-1c-0.6,2-0.9,4-0.9,6.2c0,11.6,9.4,21,21,21s21-9.4,21-21S36.6,4,25,4z"
			/>
		<path class="st0" d="M16,25c0-5,4-9,9-9s9,4,9,9c0,0.9-0.1,1.8-0.4,2.7c0.6,0.4,1.2,0.8,1.6,1.3c0.5-1.3,0.8-2.6,0.8-4
			c0-6.1-4.9-11-11-11s-11,4.9-11,11c0,5.5,4.1,10.1,9.3,10.9c-0.2-0.7-0.3-1.4-0.3-2.1C19,32.9,16,29.3,16,25z"/>
	</g>
	<g>
		<circle class="st0" cx="10" cy="12" r="6"/>
		<polygon points="10.6,8.5 9.5,8.4 9.5,11.5 6.5,11.4 6.5,12.5 9.5,12.5 9.5,15.5 10.6,15.5 10.5,12.5 13.6,12.5 13.5,11.4 
			10.5,11.5 		"/>
	</g>
	<g>
		<circle class="st0" cx="30" cy="33.7" r="4.5"/>
		<polygon points="30.6,30.9 29.5,30.8 29.5,33.2 27.2,33.1 27.2,34.2 29.5,34.2 29.5,36.5 30.6,36.5 30.5,34.2 32.9,34.2 
			32.8,33.1 30.5,33.2 		"/>
	</g>
</g>
</svg>
