<?xml version="1.0" encoding="utf-8"?>
<!-- Generator: Adobe Illustrator 27.9.6, SVG Export Plug-In . SVG Version: 9.03 Build 54986)  -->
<svg version="1.1" id="markerOFF_x5F_0_x5F_path_00000054976206169596592240000001320991853641552057_"
	 xmlns="http://www.w3.org/2000/svg" xmlns:xlink="http://www.w3.org/1999/xlink" x="0px" y="0px" width="50px" height="50px"
	 viewBox="0 0 50 50" style="enable-background:new 0 0 50 50;" xml:space="preserve">
<style type="text/css">
	.st0{fill:#FFFFFF;}
</style>
<circle cx="25" cy="25" r="22"/>
<g>
	<path class="st0" d="M44.9,31.8c1-3,1.4-6.1,1-9.2c-0.6,0.3-1.2,0.5-1.9,0.6c0.1,2.7-0.1,5.3-1,7.9C39.5,41.1,28.7,46.4,18.8,43
		C8.9,39.5,3.6,28.7,7,18.8S21.3,3.6,31.2,7c1.7,0.6,3.2,1.4,4.7,2.4c0.5-0.5,1-0.9,1.5-1.4c-1.7-1.2-3.5-2.2-5.6-2.9
		c-11-3.8-22.9,2.1-26.7,13s2.1,22.9,13,26.7S41.1,42.8,44.9,31.8z"/>
	<circle class="st0" cx="42" cy="15" r="5.5"/>
	<polygon points="42,16.6 39.3,14 40.1,13.3 42,15.3 43.9,13.3 44.7,14 	"/>
</g>
<g>
	<path class="st0" d="M26.7,16.1c4.9,1,8,5.7,7,10.6c-1,4.9-5.7,8-10.6,7c-0.9-0.2-1.7-0.5-2.6-0.9c-0.5,0.5-1,1-1.6,1.3
		c1.2,0.7,2.4,1.3,3.8,1.6c6,1.2,11.8-2.6,13-8.6s-2.6-11.8-8.6-13c-5.4-1.1-10.7,2-12.5,7c0.7-0.1,1.4,0,2.1,0.1
		C18.4,17.5,22.5,15.3,26.7,16.1z"/>
	<circle class="st0" cx="15" cy="28" r="4.5"/>
	<polygon points="15,29.7 12.6,27.4 13.4,26.6 15,28.3 16.6,26.6 17.4,27.4 	"/>
</g>
</svg>
