<?xml version="1.0" encoding="utf-8"?>
<!-- Generator: Adobe Illustrator 27.9.6, SVG Export Plug-In . SVG Version: 9.03 Build 54986)  -->
<svg version="1.1" id="orbitsOFF_x5F_path" xmlns="http://www.w3.org/2000/svg" xmlns:xlink="http://www.w3.org/1999/xlink" x="0px"
	 y="0px" width="50px" height="50px" viewBox="0 0 50 50" style="enable-background:new 0 0 50 50;" xml:space="preserve">
<style type="text/css">
	.st0{fill:#FFFFFF;}
</style>
<circle cx="25" cy="25" r="22"/>
<g>
	<path class="st0" d="M25,39c7.7,0,14-6.3,14-14c0-2.3-0.6-4.4-1.5-6.4c-0.4,0.6-1,1-1.6,1.2c0.7,1.6,1.2,3.3,1.2,5.1
		c0,6.6-5.4,12-12,12s-12-5.4-12-12s5.4-12,12-12c2.4,0,4.7,0.7,6.6,2c0.3-0.6,0.8-1.1,1.5-1.4C30.8,12,28,11,25,11
		c-7.7,0-14,6.3-14,14S17.3,39,25,39z"/>
	<circle class="st0" cx="34.6" cy="16.7" r="1"/>
</g>
<g>
	<path class="st0" d="M25,3.8c-3.6,0-7,0.9-10,2.5c0.5,0.5,0.8,1.1,1.1,1.7c2.7-1.4,5.7-2.2,8.9-2.2c10.6,0,19.2,8.6,19.2,19.2
		S35.6,44.2,25,44.2S5.8,35.6,5.8,25c0-4,1.2-7.8,3.4-10.8c-0.6-0.3-1.1-0.7-1.5-1.3C5.2,16.3,3.8,20.5,3.8,25
		c0,11.7,9.5,21.2,21.2,21.2S46.2,36.7,46.2,25S36.7,3.8,25,3.8z"/>
	<circle class="st0" cx="11.5" cy="9.8" r="1.5"/>
</g>
<polygon class="st0" points="30.3,21.1 28.9,19.7 25,23.6 21.1,19.7 19.7,21.1 23.6,25 19.7,28.9 21.1,30.3 25,26.4 28.9,30.3 
	30.3,28.9 26.4,25 "/>
</svg>
