<?xml version="1.0" encoding="utf-8"?>
<!-- Generator: Adobe Illustrator 27.9.6, SVG Export Plug-In . SVG Version: 9.03 Build 54986)  -->
<svg version="1.1" id="pause_x5F_path" xmlns="http://www.w3.org/2000/svg" xmlns:xlink="http://www.w3.org/1999/xlink" x="0px"
	 y="0px" width="50px" height="50px" viewBox="0 0 50 50" style="enable-background:new 0 0 50 50;" xml:space="preserve">
<style type="text/css">
	.st0{enable-background:new    ;}
	.st1{fill:#FFFFFF;}
</style>
<circle class="st0" cx="25" cy="25" r="22"/>
<path class="st1" d="M25,46C13.4,46,4,36.6,4,25C4,13.4,13.4,4,25,4c11.6,0,21,9.4,21,21C46,36.6,36.6,46,25,46z M25,6
	C14.5,6,6,14.5,6,25s8.5,19,19,19s19-8.5,19-19S35.5,6,25,6z"/>
<g>
	<rect x="27" y="19.5" class="st1" width="2" height="11"/>
	<rect x="21" y="19.5" class="st1" width="2" height="11"/>
</g>
</svg>
