<?xml version="1.0" encoding="utf-8"?>
<!-- Generator: Adobe Illustrator 27.9.6, SVG Export Plug-In . SVG Version: 9.03 Build 54986)  -->
<svg version="1.1" xmlns="http://www.w3.org/2000/svg" xmlns:xlink="http://www.w3.org/1999/xlink" x="0px" y="0px" width="50px"
	 height="50px" viewBox="0 0 50 50" style="enable-background:new 0 0 50 50;" xml:space="preserve">
<style type="text/css">
	.st0{display:none;}
	.st1{display:inline;}
	.st2{opacity:0.75;enable-background:new    ;}
	.st3{fill:#FFFFFF;}
</style>
<g id="planets_x5F_path" class="st0">
	<g class="st1">
		<circle class="st2" cx="25" cy="25" r="23"/>
		<path class="st3" d="M25,32.3c-4,0-7.3-3.3-7.3-7.3s3.3-7.3,7.3-7.3s7.3,3.3,7.3,7.3S29,32.3,25,32.3z M25,19.7
			c-2.9,0-5.3,2.4-5.3,5.3s2.4,5.3,5.3,5.3s5.3-2.4,5.3-5.3S27.9,19.7,25,19.7z"/>
		<circle id="center" class="st3" cx="25" cy="25" r="1.5"/>
		<circle class="st3" cx="11.7" cy="10.3" r="1.5"/>
		<path id="orbit_x5F_2" class="st3" d="M25,11.1c-7.6,0-13.9,6.2-13.9,13.9c0,2.2,0.5,4.2,1.4,6c0.4-0.5,1-0.9,1.7-1.1
			c-0.7-1.5-1.1-3.1-1.1-4.9c0-6.5,5.3-11.9,11.9-11.9c6.5,0,11.9,5.3,11.9,11.9c0,6.5-5.3,11.9-11.9,11.9c-2.2,0-4.2-0.6-5.9-1.6
			c-0.3,0.6-0.7,1.2-1.3,1.5c2.1,1.3,4.6,2.1,7.2,2.1c7.6,0,13.9-6.2,13.9-13.9C38.9,17.4,32.6,11.1,25,11.1z"/>
		<circle id="planet_x5F_Innen" class="st3" cx="15.5" cy="33.6" r="1"/>
		<path id="orbit_x5F_aussen" class="st3" d="M25,4c-3.8,0-7.4,1-10.5,2.8c0.5,0.4,0.9,1,1.2,1.6C18.5,6.9,21.6,6,25,6
			c10.5,0,19,8.5,19,19s-8.5,19-19,19S6,35.5,6,25c0-4,1.3-7.8,3.4-10.9c-0.6-0.3-1.1-0.8-1.5-1.4C5.5,16.2,4,20.4,4,25
			c0,11.6,9.4,21,21,21s21-9.4,21-21S36.6,4,25,4z"/>
	</g>
</g>
<g id="Ebene_2">
	<g>
		<circle cx="25" cy="25" r="22"/>
		<path class="st3" d="M25,32.3c-4,0-7.3-3.3-7.3-7.3c0-4,3.3-7.3,7.3-7.3c4,0,7.3,3.3,7.3,7.3C32.3,29,29,32.3,25,32.3z M25,19.7
			c-2.9,0-5.3,2.4-5.3,5.3c0,2.9,2.4,5.3,5.3,5.3c2.9,0,5.3-2.4,5.3-5.3C30.3,22.1,27.9,19.7,25,19.7z"/>
		<circle class="st3" cx="25" cy="25" r="1.5"/>
		<g>
			<path class="st3" d="M25,4c-3.8,0-7.4,1-10.5,2.8c0.5,0.4,0.9,1,1.2,1.6C18.5,6.9,21.6,6,25,6c10.5,0,19,8.5,19,19s-8.5,19-19,19
				S6,35.5,6,25c0-4,1.3-7.8,3.4-10.9c-0.6-0.3-1.1-0.8-1.5-1.4C5.5,16.2,4,20.4,4,25c0,11.6,9.4,21,21,21c11.6,0,21-9.4,21-21
				C46,13.4,36.6,4,25,4z"/>
			<circle class="st3" cx="11.7" cy="10.3" r="1.5"/>
		</g>
		<g>
			<circle class="st3" cx="15.5" cy="33.6" r="0.9"/>
			<path class="st3" d="M25,11.1c-7.6,0-13.9,6.2-13.9,13.9c0,2.2,0.5,4.2,1.4,6c0.4-0.5,1-0.9,1.7-1.1c-0.7-1.5-1.1-3.1-1.1-4.9
				c0-6.5,5.3-11.9,11.9-11.9S36.9,18.5,36.9,25S31.5,36.9,25,36.9c-2.2,0-4.2-0.6-5.9-1.6c-0.3,0.6-0.7,1.2-1.3,1.5
				c2.1,1.3,4.6,2.1,7.2,2.1c7.6,0,13.9-6.2,13.9-13.9S32.6,11.1,25,11.1z"/>
		</g>
	</g>
</g>
</svg>
