<?xml version="1.0" encoding="utf-8"?>
<!-- Generator: Adobe Illustrator 27.9.3, SVG Export Plug-In . SVG Version: 9.03 Build 53313)  -->
<svg version="1.1" id="Ebene_1" xmlns="http://www.w3.org/2000/svg" xmlns:xlink="http://www.w3.org/1999/xlink" x="0px" y="0px"
	 viewBox="0 0 30 30" style="enable-background:new 0 0 30 30;" xml:space="preserve">
<style type="text/css">
	.st0{fill:url(#Pfeil_00000135680001755576867640000004978593798227968414_);}
	.st1{fill:none;stroke:#FFFFFF;stroke-width:2;stroke-linejoin:round;stroke-miterlimit:10;}
</style>
<g id="speed">
	<g id="sliderXS">
		
			<linearGradient id="Pfeil_00000128460203212474558710000002554717607399259288_" gradientUnits="userSpaceOnUse" x1="15" y1="5" x2="15" y2="27" gradientTransform="matrix(1 0 0 -1 0 32)">
			<stop  offset="0.2085" style="stop-color:#000000"/>
			<stop  offset="0.6792" style="stop-color:#000000;stop-opacity:0.5"/>
		</linearGradient>
		
			<path id="Pfeil_00000160913588119025712270000006559121710832608941_" style="fill:url(#Pfeil_00000128460203212474558710000002554717607399259288_);" d="
			M3.6,7.9v7.5c0,1.2,0.5,2.4,1.3,3.2l7.2,7.2c1.6,1.6,4.2,1.6,5.8,0l7.2-7.2c0.9-0.9,1.3-2,1.3-3.2V7.9c0-1.6-1.6-2.9-2.9-2.9h-17
			C5.2,5,3.6,6.3,3.6,7.9z"/>
		<path id="Pfeil_00000063605385812796742160000008111187401508606851_" class="st1" d="M3.6,7.9v7.5c0,1.2,0.5,2.4,1.3,3.2l7.2,7.2
			c1.6,1.6,4.2,1.6,5.8,0l7.2-7.2c0.9-0.9,1.3-2,1.3-3.2V7.9c0-1.6-1.6-2.9-2.9-2.9h-17C5.2,5,3.6,6.3,3.6,7.9z"/>
	</g>
</g>
</svg>
