<?xml version="1.0" encoding="utf-8"?>
<!-- Generator: Adobe Illustrator 27.9.6, SVG Export Plug-In . SVG Version: 9.03 Build 54986)  -->
<svg version="1.1" id="Ebene_1" xmlns="http://www.w3.org/2000/svg" xmlns:xlink="http://www.w3.org/1999/xlink" x="0px" y="0px"
	 width="30px" height="30px" viewBox="0 0 30 30" style="enable-background:new 0 0 30 30;" xml:space="preserve">
<style type="text/css">
	.st0{fill:none;stroke:#FFFFFF;stroke-width:2;stroke-linejoin:round;stroke-miterlimit:10;}
</style>
<g id="speed">
	<g id="sliderXS">
		<path id="Pfeil_00000160913588119025712270000006559121710832608941_" d="M3.6,7.9v7.5c0,1.2,0.5,2.4,1.3,3.2l7.2,7.2
			c1.6,1.6,4.2,1.6,5.8,0l7.2-7.2c0.9-0.9,1.3-2,1.3-3.2V7.9c0-1.6-1.6-2.9-2.9-2.9h-17C5.2,5,3.6,6.3,3.6,7.9z"/>
		<path id="Pfeil_00000063605385812796742160000008111187401508606851_" class="st0" d="M3.6,7.9v7.5c0,1.2,0.5,2.4,1.3,3.2l7.2,7.2
			c1.6,1.6,4.2,1.6,5.8,0l7.2-7.2c0.9-0.9,1.3-2,1.3-3.2V7.9c0-1.6-1.6-2.9-2.9-2.9h-17C5.2,5,3.6,6.3,3.6,7.9z"/>
	</g>
</g>
</svg>
